<svg width="40" height="40" viewBox="0 0 40 40" fill="none" xmlns="http://www.w3.org/2000/svg">
<g clip-path="url(#clip0_951_1456)">
<rect width="39.41" height="39.41" rx="8.41" fill="white"/>
<rect width="39.41" height="39.41" fill="#E54D4D"/>
<path fill-rule="evenodd" clip-rule="evenodd" d="M27.2417 16.0244C28.1722 16.0243 29.0677 16.3177 29.7447 16.8445C30.4218 17.3713 30.8293 18.0917 30.8839 18.8582L30.89 19.0348V22.0453C30.89 22.6875 30.4291 23.1883 29.8174 23.4171L29.6739 23.4642V27.0627C29.6741 27.569 29.4423 28.0567 29.0251 28.428C28.6079 28.7993 28.036 29.0267 27.4241 29.0647L27.2417 29.0697H12.6483C12.0347 29.0698 11.4437 28.8786 10.9938 28.5343C10.5438 28.19 10.2682 27.7181 10.2222 27.2132L10.2161 27.0627V23.4652C9.88788 23.3708 9.59951 23.2004 9.38539 22.9744C9.17128 22.7484 9.04045 22.4764 9.00851 22.1908L9 22.0453V19.0348C8.99995 18.267 9.3555 17.5281 9.99391 16.9694C10.6323 16.4107 11.5053 16.0745 12.4343 16.0294L12.6483 16.0244H27.2417ZM27.1602 22.7477C26.9715 22.6309 26.7458 22.5619 26.5104 22.5491C26.2751 22.5362 26.0403 22.5802 25.8346 22.6755L25.7009 22.7477L25.3774 22.9484C24.7806 23.3179 24.0609 23.5276 23.3153 23.5491C22.5696 23.5706 21.8339 23.403 21.2073 23.0688L20.9994 22.9484L20.6747 22.7477C20.486 22.6309 20.2603 22.5619 20.0249 22.5491C19.7895 22.5362 19.5547 22.5802 19.3491 22.6755L19.2153 22.7477L18.8906 22.9484C18.294 23.3177 17.5745 23.5272 16.8291 23.5488C16.0838 23.5703 15.3483 23.4028 14.7218 23.0688L14.5126 22.9484L14.1891 22.7477C14.0005 22.6309 13.7747 22.5619 13.5394 22.5491C13.304 22.5362 13.0692 22.5802 12.8636 22.6755L12.7298 22.7477L12.6483 22.7979V27.0627H27.2417V22.7979L27.1602 22.7477ZM27.2417 18.0314H12.6483C12.3258 18.0314 12.0165 18.1371 11.7884 18.3253C11.5603 18.5135 11.4322 18.7687 11.4322 19.0348V21.0468C12.0605 20.7005 12.8035 20.5237 13.5587 20.5408C14.314 20.5579 15.0442 20.768 15.6485 21.1422L15.972 21.3429C16.1825 21.4731 16.4385 21.5436 16.7016 21.5436C16.9648 21.5436 17.2208 21.4731 17.4313 21.3429L17.756 21.1422C18.3875 20.7513 19.1556 20.5401 19.945 20.5401C20.7344 20.5401 21.5025 20.7513 22.134 21.1422L22.4587 21.3429C22.6692 21.4731 22.9252 21.5436 23.1884 21.5436C23.4515 21.5436 23.7075 21.4731 23.918 21.3429L24.2415 21.1422C24.8458 20.768 25.576 20.5579 26.3313 20.5408C27.0865 20.5237 27.8295 20.7005 28.4578 21.0468V19.0348C28.4578 18.7687 28.3297 18.5135 28.1016 18.3253C27.8735 18.1371 27.5642 18.0314 27.2417 18.0314ZM20.6747 9.2007C21.1768 9.52538 21.6435 9.88567 22.0695 10.2774C22.7068 10.8685 23.5933 11.8649 23.5933 13.0139C23.5933 13.8124 23.209 14.5781 22.5248 15.1426C21.8406 15.7072 20.9126 16.0244 19.945 16.0244C18.9774 16.0244 18.0494 15.7072 17.3652 15.1426C16.681 14.5781 16.2967 13.8124 16.2967 13.0139C16.2967 11.8649 17.1844 10.8685 17.8205 10.2774C18.2465 9.88567 18.7132 9.52538 19.2153 9.2007C19.4258 9.07042 19.6819 9 19.945 9C20.2081 9 20.4642 9.07042 20.6747 9.2007ZM19.945 11.3421C19.8391 11.4292 19.7365 11.5188 19.6373 11.6111C19.0585 12.1489 18.7289 12.6577 18.7289 13.0139C18.7289 13.2801 18.857 13.5353 19.0851 13.7235C19.3131 13.9117 19.6225 14.0174 19.945 14.0174C20.2675 14.0174 20.5769 13.9117 20.8049 13.7235C21.033 13.5353 21.1611 13.2801 21.1611 13.0139C21.1611 12.6577 20.8328 12.1489 20.2527 11.6111C20.1535 11.5188 20.0509 11.4292 19.945 11.3421Z" fill="white"/>
</g>
<defs>
<clipPath id="clip0_951_1456">
<rect width="39.41" height="39.41" rx="8.41" fill="white"/>
</clipPath>
</defs>
</svg>
