<svg width="40" height="40" viewBox="0 0 40 40" fill="none" xmlns="http://www.w3.org/2000/svg">
<g clip-path="url(#clip0_951_1441)">
<rect width="39.41" height="39.41" rx="8.41" fill="white"/>
<rect width="39.41" height="39.41" fill="#F0BB22"/>
<path d="M26.6336 19.945C26.1498 19.945 25.6858 19.7528 25.3437 19.4107C25.0016 19.0686 24.8094 18.6046 24.8094 18.1208C24.8094 17.637 25.0016 17.1731 25.3437 16.831C25.6858 16.4889 26.1498 16.2967 26.6336 16.2967C27.1174 16.2967 27.5814 16.4889 27.9235 16.831C28.2656 17.1731 28.4578 17.637 28.4578 18.1208C28.4578 18.6046 28.2656 19.0686 27.9235 19.4107C27.5814 19.7528 27.1174 19.945 26.6336 19.945ZM22.9853 15.0806C22.5015 15.0806 22.0375 14.8884 21.6954 14.5463C21.3533 14.2042 21.1611 13.7402 21.1611 13.2564C21.1611 12.7726 21.3533 12.3086 21.6954 11.9665C22.0375 11.6244 22.5015 11.4322 22.9853 11.4322C23.4691 11.4322 23.9331 11.6244 24.2752 11.9665C24.6173 12.3086 24.8094 12.7726 24.8094 13.2564C24.8094 13.7402 24.6173 14.2042 24.2752 14.5463C23.9331 14.8884 23.4691 15.0806 22.9853 15.0806ZM16.9047 15.0806C16.4209 15.0806 15.9569 14.8884 15.6148 14.5463C15.2727 14.2042 15.0806 13.7402 15.0806 13.2564C15.0806 12.7726 15.2727 12.3086 15.6148 11.9665C15.9569 11.6244 16.4209 11.4322 16.9047 11.4322C17.3885 11.4322 17.8525 11.6244 18.1946 11.9665C18.5367 12.3086 18.7289 12.7726 18.7289 13.2564C18.7289 13.7402 18.5367 14.2042 18.1946 14.5463C17.8525 14.8884 17.3885 15.0806 16.9047 15.0806ZM13.2564 19.945C12.7726 19.945 12.3086 19.7528 11.9665 19.4107C11.6244 19.0686 11.4322 18.6046 11.4322 18.1208C11.4322 17.637 11.6244 17.1731 11.9665 16.831C12.3086 16.4889 12.7726 16.2967 13.2564 16.2967C13.7402 16.2967 14.2042 16.4889 14.5463 16.831C14.8884 17.1731 15.0806 17.637 15.0806 18.1208C15.0806 18.6046 14.8884 19.0686 14.5463 19.4107C14.2042 19.7528 13.7402 19.945 13.2564 19.945ZM19.945 9C17.0422 9 14.2583 10.1531 12.2057 12.2057C10.1531 14.2583 9 17.0422 9 19.945C9 22.8478 10.1531 25.6317 12.2057 27.6843C14.2583 29.7369 17.0422 30.89 19.945 30.89C20.4288 30.89 20.8928 30.6978 21.2349 30.3557C21.577 30.0136 21.7692 29.5496 21.7692 29.0658C21.7692 28.5916 21.5867 28.1659 21.2949 27.8497C21.0152 27.5214 20.8328 27.0957 20.8328 26.6336C20.8328 26.1498 21.025 25.6858 21.367 25.3437C21.7091 25.0016 22.1731 24.8094 22.6569 24.8094H24.8094C26.4221 24.8094 27.9687 24.1688 29.109 23.0285C30.2494 21.8882 30.89 20.3416 30.89 18.7289C30.89 13.3537 25.9891 9 19.945 9Z" fill="white"/>
</g>
<defs>
<clipPath id="clip0_951_1441">
<rect width="39.41" height="39.41" rx="8.41" fill="white"/>
</clipPath>
</defs>
</svg>
