<svg width="40" height="40" viewBox="0 0 40 40" fill="none" xmlns="http://www.w3.org/2000/svg">
<g clip-path="url(#clip0_949_1478)">
<rect width="39.41" height="39.41" rx="8.41" fill="white"/>
<path d="M0 0L39.41 39.41H8.40999C3.76528 39.41 0 35.6447 0 31V0Z" fill="#F576AC"/>
<path d="M39.41 39.41L3.8147e-06 3.8147e-06H31C35.6447 3.8147e-06 39.41 3.76529 39.41 8.41V39.41Z" fill="#7ED0EC"/>
<path opacity="0.2" d="M26 18C26 19.3845 25.5895 20.7378 24.8203 21.889C24.0511 23.0401 22.9579 23.9373 21.6788 24.4672C20.3997 24.997 18.9922 25.1356 17.6344 24.8655C16.2765 24.5954 15.0292 23.9287 14.0503 22.9497C13.0713 21.9708 12.4046 20.7235 12.1345 19.3656C11.8644 18.0078 12.003 16.6003 12.5328 15.3212C13.0627 14.0421 13.9599 12.9489 15.111 12.1797C16.2622 11.4105 17.6155 11 19 11C20.8565 11 22.637 11.7375 23.9497 13.0503C25.2625 14.363 26 16.1435 26 18Z" fill="white"/>
<path d="M30 7H25C24.7348 7 24.4804 7.10536 24.2929 7.29289C24.1054 7.48043 24 7.73478 24 8C24 8.26522 24.1054 8.51957 24.2929 8.70711C24.4804 8.89464 24.7348 9 25 9H27.5863L24.4425 12.1438C23.5194 11.2835 22.4059 10.6538 21.193 10.3061C19.98 9.95833 18.702 9.90245 17.4633 10.143C16.2247 10.3835 15.0605 10.9136 14.0658 11.69C13.0711 12.4665 12.2743 13.4671 11.7402 14.6104C11.2062 15.7536 10.9501 17.0069 10.993 18.268C11.0358 19.5291 11.3764 20.7621 11.9868 21.8665C12.5972 22.9708 13.4602 23.9151 14.5053 24.6222C15.5503 25.3292 16.7479 25.7791 18 25.935V28H15C14.7348 28 14.4804 28.1054 14.2929 28.2929C14.1054 28.4804 14 28.7348 14 29C14 29.2652 14.1054 29.5196 14.2929 29.7071C14.4804 29.8946 14.7348 30 15 30H18V33C18 33.2652 18.1054 33.5196 18.2929 33.7071C18.4804 33.8946 18.7348 34 19 34C19.2652 34 19.5196 33.8946 19.7071 33.7071C19.8946 33.5196 20 33.2652 20 33V30H23C23.2652 30 23.5196 29.8946 23.7071 29.7071C23.8946 29.5196 24 29.2652 24 29C24 28.7348 23.8946 28.4804 23.7071 28.2929C23.5196 28.1054 23.2652 28 23 28H20V25.935C21.3404 25.7676 22.6165 25.263 23.709 24.4685C24.8014 23.674 25.6746 22.6155 26.247 21.3919C26.8193 20.1684 27.0721 18.8196 26.9817 17.4718C26.8913 16.1241 26.4606 14.8212 25.73 13.685L29 10.4138V13C29 13.2652 29.1054 13.5196 29.2929 13.7071C29.4804 13.8946 29.7348 14 30 14C30.2652 14 30.5196 13.8946 30.7071 13.7071C30.8946 13.5196 31 13.2652 31 13V8C31 7.73478 30.8946 7.48043 30.7071 7.29289C30.5196 7.10536 30.2652 7 30 7ZM19 24C17.8133 24 16.6533 23.6481 15.6666 22.9888C14.6799 22.3295 13.9108 21.3925 13.4567 20.2961C13.0026 19.1997 12.8838 17.9933 13.1153 16.8295C13.3468 15.6656 13.9182 14.5965 14.7574 13.7574C15.5965 12.9182 16.6656 12.3468 17.8295 12.1153C18.9933 11.8838 20.1997 12.0026 21.2961 12.4567C22.3925 12.9108 23.3295 13.6799 23.9888 14.6666C24.6481 15.6533 25 16.8133 25 18C24.9983 19.5908 24.3657 21.116 23.2408 22.2408C22.116 23.3657 20.5908 23.9983 19 24Z" fill="white"/>
</g>
<defs>
<clipPath id="clip0_949_1478">
<rect width="39.41" height="39.41" rx="8.41" fill="white"/>
</clipPath>
</defs>
</svg>
