<svg width="40" height="40" viewBox="0 0 40 40" fill="none" xmlns="http://www.w3.org/2000/svg">
<g clip-path="url(#clip0_950_1423)">
<rect width="39.41" height="39.41" rx="8.41" fill="white"/>
<rect width="39.41" height="39.41" fill="#7ED0EC"/>
<path fill-rule="evenodd" clip-rule="evenodd" d="M21.593 30.258L21.582 30.26L21.511 30.295L21.491 30.299L21.477 30.295L21.406 30.26C21.3953 30.2567 21.3873 30.2583 21.382 30.265L21.378 30.275L21.361 30.703L21.366 30.723L21.376 30.736L21.48 30.81L21.495 30.814L21.507 30.81L21.611 30.736L21.623 30.72L21.627 30.703L21.61 30.276C21.6073 30.2653 21.6016 30.2593 21.593 30.258ZM21.858 30.145L21.845 30.147L21.66 30.24L21.65 30.25L21.647 30.261L21.665 30.691L21.67 30.703L21.678 30.71L21.879 30.803C21.8916 30.8063 21.9013 30.8037 21.908 30.795L21.912 30.781L21.878 30.167C21.8746 30.155 21.868 30.1477 21.858 30.145ZM21.143 30.147C21.1386 30.1443 21.1333 30.1435 21.1283 30.1446C21.1232 30.1457 21.1188 30.1487 21.116 30.153L21.11 30.167L21.076 30.781C21.0766 30.793 21.0823 30.801 21.093 30.805L21.108 30.803L21.309 30.71L21.319 30.702L21.323 30.691L21.34 30.261L21.337 30.249L21.327 30.239L21.143 30.147Z" fill="white"/>
<path fill-rule="evenodd" clip-rule="evenodd" d="M30.89 15.9126C30.89 16.2182 30.7686 16.5112 30.5526 16.7273C30.3365 16.9434 30.0435 17.0648 29.7379 17.0648C29.4323 17.0648 29.1393 16.9434 28.9232 16.7273C28.7072 16.5112 28.5858 16.2182 28.5858 15.9126V12.9333L24.5108 17.0083C25.8401 18.7509 26.4576 20.9335 26.2382 23.1143C26.0188 25.295 24.9788 27.3109 23.3289 28.7537C21.6791 30.1965 19.5426 30.9584 17.352 30.8852C15.1615 30.8119 13.0806 29.909 11.5308 28.3592C9.98103 26.8094 9.07808 24.7285 9.00483 22.538C8.93158 20.3474 9.6935 18.2109 11.1363 16.5611C12.5791 14.9112 14.595 13.8712 16.7757 13.6518C18.9565 13.4324 21.1391 14.0499 22.8817 15.3792L26.9567 11.3042H23.9774C23.6718 11.3042 23.3788 11.1828 23.1627 10.9668C22.9466 10.7507 22.8252 10.4577 22.8252 10.1521C22.8252 9.84655 22.9466 9.55351 23.1627 9.33744C23.3788 9.12138 23.6718 9 23.9774 9H29.4499C30.2448 9 30.89 9.64518 30.89 10.4401V15.9126ZM17.6408 15.9126C15.9602 15.9126 14.3485 16.5802 13.1601 17.7686C11.9718 18.9569 11.3042 20.5687 11.3042 22.2492C11.3042 23.9298 11.9718 25.5415 13.1601 26.7299C14.3485 27.9182 15.9602 28.5858 17.6408 28.5858C19.3213 28.5858 20.9331 27.9182 22.1214 26.7299C23.3098 25.5415 23.9774 23.9298 23.9774 22.2492C23.9774 20.5687 23.3098 18.9569 22.1214 17.7686C20.9331 16.5802 19.3213 15.9126 17.6408 15.9126Z" fill="white"/>
</g>
<defs>
<clipPath id="clip0_950_1423">
<rect width="39.41" height="39.41" rx="8.41" fill="white"/>
</clipPath>
</defs>
</svg>
