<svg width="40" height="40" viewBox="0 0 40 40" fill="none" xmlns="http://www.w3.org/2000/svg">
<g clip-path="url(#clip0_951_1446)">
<rect width="39.41" height="39.41" rx="8.41" fill="white"/>
<path d="M0 0H39.41V39.41H0V0Z" fill="#7A86AE"/>
<path d="M11.2383 27.068C9.74645 25.5762 9 24.8298 9 23.9027C9 22.9746 9.74645 22.2281 11.2383 20.7363L20.7363 11.2383C22.2292 9.74645 22.9746 9 23.9027 9C24.8308 9 25.5762 9.74645 27.068 11.2383L28.6517 12.822C30.1435 14.3138 30.89 15.0602 30.89 15.9873C30.89 16.9143 30.1435 17.6619 28.6517 19.1537L19.1537 28.6517C17.6608 30.1435 16.9132 30.89 15.9873 30.89C15.0613 30.89 14.3138 30.1435 12.822 28.6517L11.2383 27.068Z" stroke="white" stroke-width="1.5"/>
<path d="M16.0748 16.0748L17.6247 17.6247M20.7188 11.432L22.2664 12.9796M11.432 20.7188L12.9796 22.2664M13.7534 18.3974L16.0759 20.7188M18.3974 13.7534L20.7188 16.0748" stroke="white" stroke-width="1.5" stroke-linecap="round"/>
</g>
<defs>
<clipPath id="clip0_951_1446">
<rect width="39.41" height="39.41" rx="8.41" fill="white"/>
</clipPath>
</defs>
</svg>
