<svg width="28" height="28" viewBox="0 0 28 28" fill="none" xmlns="http://www.w3.org/2000/svg">
<path d="M16.2163 7.77201V11.9315C13.1623 11.9862 11.8926 13.256 11.8379 16.3099H7.67844C4.39466 16.3099 3.08115 14.9964 3.08115 11.7127L3.08115 7.77201C3.08115 4.48823 4.39466 3.17477 7.67844 3.17477L11.619 3.17477C14.9027 3.17477 16.2163 4.48823 16.2163 7.77201Z" stroke="#141415" stroke-width="1.64189" stroke-linecap="round" stroke-linejoin="round"/>
<path d="M8.51034 7.41071C7.93021 7.01665 7.164 7.01668 6.58386 7.43262" stroke="#141415" stroke-width="1.64189" stroke-miterlimit="10" stroke-linecap="round" stroke-linejoin="round"/>
<path d="M12.8887 7.41068C12.3086 7.01662 11.5424 7.01664 10.9622 7.43259" stroke="#141415" stroke-width="1.64189" stroke-miterlimit="10" stroke-linecap="round" stroke-linejoin="round"/>
<path d="M9.8239 13.4859H7.28444C6.95606 13.4859 6.69336 13.2231 6.69336 12.8947C6.69336 11.2638 8.01782 9.93939 9.64876 9.93939C10.3493 9.93939 10.9951 10.1802 11.4986 10.5852" stroke="#141415" stroke-width="1.64189" stroke-miterlimit="10" stroke-linecap="round" stroke-linejoin="round"/>
<path d="M24.9729 16.5287V20.4693C24.9729 23.7531 23.6594 25.0666 20.3757 25.0666H16.4351C13.1513 25.0666 11.8378 23.7531 11.8378 20.4693V16.3098C11.8926 13.2559 13.1623 11.9862 16.2162 11.9315H20.3757C23.6594 11.9315 24.9729 13.2449 24.9729 16.5287Z" stroke="#141415" stroke-width="1.64189" stroke-linecap="round" stroke-linejoin="round"/>
<path d="M17.2672 15.894C16.687 16.288 15.9208 16.288 15.3407 15.8721" stroke="#141415" stroke-width="1.64189" stroke-miterlimit="10" stroke-linecap="round" stroke-linejoin="round"/>
<path d="M21.6455 15.894C21.0654 16.288 20.2992 16.288 19.7191 15.872" stroke="#141415" stroke-width="1.64189" stroke-miterlimit="10" stroke-linecap="round" stroke-linejoin="round"/>
<path d="M16.0412 18.696H20.7698C21.0982 18.696 21.3609 18.9587 21.3609 19.287C21.3609 20.918 20.0364 22.2425 18.4055 22.2425C16.7745 22.2425 15.4501 20.918 15.4501 19.287C15.4501 18.9587 15.7128 18.696 16.0412 18.696Z" stroke="#141415" stroke-width="1.64189" stroke-miterlimit="10" stroke-linecap="round" stroke-linejoin="round"/>
</svg>
