<?xml version="1.0" encoding="UTF-8"?>
<svg version="1.1" xmlns="http://www.w3.org/2000/svg" width="512" height="512">
<path d="M0 0 C1.07191086 -0.00974854 2.14382172 -0.01949707 3.24821472 -0.02954102 C27.30873441 -0.20323418 50.74735098 0.09705654 74.4921875 4.23828125 C75.57016602 4.4202002 76.64814453 4.60211914 77.75878906 4.78955078 C106.51955336 9.78230524 134.81401299 19.31553954 160.4921875 33.23828125 C161.5140918 33.79056396 161.5140918 33.79056396 162.55664062 34.35400391 C197.27763593 53.36366839 226.51652296 82.63149309 238.30859375 121.078125 C242.87112579 136.72159452 242.65366036 152.89963642 242.66015625 169.0546875 C242.66337985 170.96117679 242.6667447 172.86766585 242.67024231 174.77415466 C242.67619726 178.75544812 242.67808605 182.73671999 242.67749023 186.71801758 C242.677389 191.76136557 242.69101806 196.80457158 242.70826244 201.84788609 C242.71951084 205.78357041 242.72140553 209.71922184 242.72088051 213.65492058 C242.72204229 215.51121444 242.72635949 217.36750969 242.73421288 219.22378731 C242.89562058 261.32293545 231.79189268 293.68390237 202.1171875 323.92578125 C166.8026517 358.99048688 111.59128975 380.63633606 62.4921875 384.23828125 C62.5953125 385.12515625 62.6984375 386.01203125 62.8046875 386.92578125 C62.8046875 395.74271413 57.92219366 404.56713082 52.4921875 411.23828125 C56.4272237 411.00680853 58.87303506 410.7064209 62.0546875 408.30078125 C64.13187023 405.69098757 65.67101487 403.24855792 67.3046875 400.36328125 C73.03525642 390.5747714 81.67678993 385.31175407 92.5546875 382.42578125 C94.00875 382.33296875 94.00875 382.33296875 95.4921875 382.23828125 C96.22824219 382.18800781 96.96429688 382.13773437 97.72265625 382.0859375 C108.92766747 381.65163474 119.25656319 385.47956894 127.53515625 393.125 C135.58822471 401.86489733 138.97855889 411.63406607 138.75 423.4375 C138.19692295 429.44592799 136.04685851 434.87373876 133.8046875 440.42578125 C130.92546515 448.18582437 133.23165403 453.789936 136.30078125 461.15234375 C139.98310888 470.69017598 139.40027334 480.86510325 135.4921875 490.23828125 C130.86378586 499.30422261 123.07537272 507.20924785 113.5546875 511.11328125 C104.07634476 513.86134243 92.39579074 513.68363029 83.4921875 509.3671875 C74.55337203 504.32164518 68.81027418 498.49432685 63.94921875 489.47265625 C62.00270185 486.4876491 60.00815589 484.78749861 56.6484375 483.5703125 C52.65961523 482.95609168 48.61491275 482.94649115 44.5859375 482.8125 C40.91614971 482.13136514 39.70130659 481.20329169 37.4921875 478.23828125 C37.02300067 474.48478663 36.96082369 472.19979672 38.8046875 468.86328125 C42.67382902 465.13744127 48.04312319 465.97148609 53.0703125 466.02734375 C61.5817514 466.55202149 68.32138337 469.32016091 74.4921875 475.23828125 C77.53759086 478.7701032 80.05878779 482.55534838 82.5546875 486.48828125 C85.42294729 490.55935966 88.89401937 493.3458653 93.4921875 495.23828125 C100.79858022 496.16747443 107.33072267 495.92334403 113.6171875 491.8671875 C118.85532044 487.31655951 121.21174721 481.8314225 121.7421875 475.03515625 C121.43881035 470.42761583 120.10935981 466.77518002 118.4921875 462.48828125 C113.97323954 449.67743483 115.14302816 440.52250914 120.1796875 428.05078125 C122.69751722 421.34103291 121.53574292 415.95795965 118.75 409.5390625 C115.82723657 404.19276543 111.16597645 401.62497587 105.49609375 399.7421875 C99.34789074 398.19614815 93.99242441 399.35997931 88.4921875 402.23828125 C84.38939944 405.55958587 81.81098217 409.66253267 78.94921875 414.03125 C74.0826715 421.40282962 68.25775549 426.36912803 59.4921875 428.23828125 C56.66257724 428.34808624 53.85688149 428.40579631 51.02685547 428.4152832 C50.17426651 428.4218544 49.32167755 428.4284256 48.44325256 428.43519592 C45.62362574 428.45489333 42.80405218 428.46658526 39.984375 428.4765625 C39.01862675 428.48063803 38.05287849 428.48471355 37.05786514 428.48891258 C31.94352687 428.50976083 26.8292153 428.52406644 21.71484375 428.53344727 C16.44928092 428.54449298 11.18414284 428.57887535 5.91872978 428.61861897 C1.85561371 428.64484925 -2.20740227 428.65314492 -6.27059555 428.65672874 C-8.21053807 428.66158021 -10.15047656 428.67315281 -12.09033585 428.69176674 C-35.35885757 428.90111479 -35.35885757 428.90111479 -44.80078125 420.27734375 C-47.03290581 417.61105309 -48.71212552 414.67642921 -50.4453125 411.67578125 C-54.09735029 405.45668 -57.5515748 401.68702765 -64.5390625 399.64453125 C-72.31304528 398.04037607 -78.28754463 400.19464972 -84.7578125 404.30078125 C-89.37491034 408.47635334 -91.05815723 414.5903113 -92.0703125 420.55078125 C-91.32983582 425.40501728 -89.58358997 429.63200026 -87.69921875 434.15234375 C-83.50277209 445.02182853 -85.49902994 454.6603623 -89.5078125 465.23828125 C-91.88775126 471.9605644 -92.41138144 477.55677679 -89.69140625 484.24609375 C-86.8146256 489.0881998 -81.75216202 493.1961488 -76.5078125 495.23828125 C-69.29797916 496.14427883 -63.02207301 496.10622389 -57.07421875 491.6484375 C-54.23781783 489.09496934 -52.20929124 486.35361175 -50.18359375 483.1328125 C-44.82183446 474.73131566 -39.19444638 469.23037155 -29.34960938 466.67895508 C-25.44928987 466.07413749 -21.60609467 466.03587979 -17.6640625 466 C-16.81734985 465.99192825 -15.97063721 465.98385651 -15.0982666 465.97554016 C-13.3130902 465.96175093 -11.527888 465.95100585 -9.74267578 465.94311523 C-7.91935488 465.93155875 -6.09606877 465.91104945 -4.27294922 465.8815918 C-1.63225424 465.83895384 1.00744126 465.82275602 3.6484375 465.8125 C4.46002319 465.79499191 5.27160889 465.77748383 6.10778809 465.75944519 C10.06226319 465.77458216 12.03661829 465.95749321 15.48242188 468.08129883 C18.06383584 470.85180324 18.4921875 472.46746134 18.4921875 476.23828125 C16.36175272 480.80349864 16.36175272 480.80349864 13.4921875 482.23828125 C10.73169028 482.35907521 7.99212483 482.42398003 5.23046875 482.44921875 C3.53709996 482.47730273 1.84374072 482.50596728 0.15039062 482.53515625 C-2.51781796 482.57629981 -5.18585126 482.61318743 -7.85424805 482.63964844 C-10.43055097 482.66740981 -13.00604451 482.71329624 -15.58203125 482.76171875 C-16.76523201 482.76659805 -16.76523201 482.76659805 -17.97233582 482.77157593 C-23.18566713 482.88615005 -26.86853709 483.81490105 -31.5078125 486.23828125 C-33.3206571 488.15226053 -33.3206571 488.15226053 -34.5078125 490.42578125 C-40.51444524 500.26064125 -48.15870544 508.05203849 -59.25 511.83203125 C-71.42543578 514.0227671 -83.40913747 512.55182146 -93.7578125 505.61328125 C-100.92687489 499.79853865 -106.01422999 491.3483915 -108.1953125 482.42578125 C-109.23011667 471.87077872 -107.43796754 463.39282941 -103.40234375 453.5390625 C-100.67122674 446.51448642 -103.56442056 440.92584824 -106.31640625 434.32421875 C-109.99928285 424.7849646 -109.42355735 414.60651609 -105.5078125 405.23828125 C-100.03241526 393.87811128 -92.31833855 387.51054927 -80.5078125 383.23828125 C-69.7606953 380.60532033 -59.06112703 382.15397023 -49.625 387.8515625 C-48.92632812 388.30917969 -48.22765625 388.76679688 -47.5078125 389.23828125 C-46.91226563 389.62371094 -46.31671875 390.00914062 -45.703125 390.40625 C-40.74400869 394.11987396 -37.80027448 399.12070169 -34.703125 404.38842773 C-32.02418218 408.9310508 -32.02418218 408.9310508 -27.5078125 411.23828125 C-24.84072181 411.40578539 -24.84072181 411.40578539 -22.5078125 411.23828125 C-22.89453125 410.7278125 -23.28125 410.21734375 -23.6796875 409.69140625 C-29.18872476 402.00057205 -32.87747616 393.83531847 -32.5078125 384.23828125 C-33.27738281 384.16351563 -34.04695312 384.08875 -34.83984375 384.01171875 C-89.15475215 377.79385045 -148.26851754 354.61362165 -183.96972656 311.47167969 C-204.9110781 285.00981046 -212.16673918 258.23197864 -212.0390625 224.95703125 C-212.0417649 222.44754893 -212.0456535 219.93806765 -212.05065918 217.42858887 C-212.056519 212.19757 -212.04810532 206.96682642 -212.02929688 201.73583984 C-212.00650984 195.07907418 -212.01965172 188.42322297 -212.04358673 181.76644135 C-212.05814017 176.59294905 -212.05339519 171.41960616 -212.04307556 166.24610901 C-212.04043458 163.79366476 -212.04358376 161.3412063 -212.05299377 158.88877869 C-212.16459001 121.64437737 -199.9770545 93.30294629 -175.125 65.87109375 C-161.50432763 52.16910393 -145.52892627 41.23641363 -128.5078125 32.23828125 C-127.65010254 31.78211426 -126.79239258 31.32594727 -125.90869141 30.85595703 C-87.85232609 10.91701779 -42.90957787 0.32567132 0 0 Z M-156.5078125 71.23828125 C-157.79659312 72.30428009 -159.08772145 73.36745795 -160.3828125 74.42578125 C-181.58512167 92.769936 -194.25553426 119.68646226 -196.29824829 147.32339478 C-196.7109809 155.03368709 -196.67257071 162.74928848 -196.67578125 170.46875 C-196.67900484 172.31276982 -196.68236969 174.1567894 -196.68586731 176.00080872 C-196.69181964 179.84925935 -196.69371127 183.69768767 -196.69311523 187.54614258 C-196.69301387 192.42602306 -196.70665731 197.30575721 -196.72388744 202.18560314 C-196.73512237 205.99081553 -196.73703095 209.79599383 -196.73650551 213.60122108 C-196.73766874 215.39776424 -196.74199461 217.19430878 -196.74983788 218.99083519 C-196.78560193 228.02827159 -196.60052123 236.95552593 -195.62231445 245.9465332 C-195.54526118 246.65676478 -195.46820791 247.36699636 -195.38881969 248.09875011 C-191.75712725 278.07718791 -172.46951935 303.63378576 -149.5078125 322.23828125 C-115.19344749 348.5066454 -73.88707883 362.17667089 -31.5078125 368.23828125 C-31.01152344 367.17609375 -30.51523438 366.11390625 -30.00390625 365.01953125 C-21.76024533 347.73990314 -21.76024533 347.73990314 -13.5078125 342.23828125 C-13.07843824 339.214913 -13.07843824 339.214913 -13.171875 335.65625 C-13.15935709 334.31835457 -13.14631973 332.98046393 -13.1328125 331.64257812 C-13.12888987 329.53587802 -13.13278553 327.42965248 -13.14746094 325.32299805 C-13.15606653 323.28753551 -13.13428866 321.2540397 -13.109375 319.21875 C-13.11445068 317.39186646 -13.11445068 317.39186646 -13.11962891 315.52807617 C-12.33642845 311.31673296 -10.87336808 309.8126414 -7.5078125 307.23828125 C-3.48746326 307.30642276 -1.39013 307.35596375 1.4921875 310.23828125 C1.7706604 313.06033325 1.7706604 313.06033325 1.81103516 316.70751953 C1.82108078 317.37105438 1.8311264 318.03458923 1.84147644 318.7182312 C1.87240738 320.91500977 1.88937062 323.11166594 1.90625 325.30859375 C1.92495373 326.83032288 1.94452654 328.35204156 1.9649353 329.87374878 C2.01634674 333.8817123 2.05592399 337.88970948 2.09307861 341.89782715 C2.13306198 345.98665759 2.18418009 350.07534693 2.234375 354.1640625 C2.33124098 362.18871301 2.41458252 370.21342133 2.4921875 378.23828125 C10.7421875 378.23828125 18.9921875 378.23828125 27.4921875 378.23828125 C27.4921875 338.63828125 27.4921875 299.03828125 27.4921875 258.23828125 C19.2421875 258.23828125 10.9921875 258.23828125 2.4921875 258.23828125 C2.1621875 267.14828125 1.8321875 276.05828125 1.4921875 285.23828125 C-2.03775863 286.41492996 -4.80236663 286.43678728 -8.5078125 286.23828125 C-11.5078125 284.23828125 -11.5078125 284.23828125 -12.5078125 281.23828125 C-12.73341926 278.84573549 -12.91629845 276.44900002 -13.0703125 274.05078125 C-13.15410156 272.77847656 -13.23789063 271.50617188 -13.32421875 270.1953125 C-13.38480469 269.21949219 -13.44539062 268.24367188 -13.5078125 267.23828125 C-14.34626709 267.1182373 -15.18472168 266.99819336 -16.04858398 266.87451172 C-61.75528332 260.24836492 -107.77730889 249.34139177 -143.5078125 218.23828125 C-144.21164063 217.66722656 -144.91546875 217.09617188 -145.640625 216.5078125 C-161.58034662 203.34972858 -174.25808422 182.82211147 -177.26171875 162.19921875 C-179.23525407 138.45414297 -173.34580942 117.08904802 -158.27734375 98.484375 C-156.08236948 96.00191737 -153.81696103 93.61453324 -151.5078125 91.23828125 C-150.78464844 90.44164063 -150.06148437 89.645 -149.31640625 88.82421875 C-116.44290607 53.7814013 -62.5110794 40.04050055 -16.5078125 35.23828125 C-15.6194873 35.14256836 -14.73116211 35.04685547 -13.81591797 34.94824219 C-4.55734759 34.05611954 4.69863855 33.99490003 13.9921875 33.98828125 C14.84912201 33.98760651 15.70605652 33.98693176 16.58895874 33.98623657 C49.06010697 34.02657434 80.69482355 38.80778026 111.4921875 49.23828125 C112.24709473 49.49222656 113.00200195 49.74617188 113.77978516 50.0078125 C123.4969458 53.32749104 132.63656424 57.53360629 141.72021484 62.30957031 C143.28872389 63.13164367 144.86822787 63.93266358 146.44921875 64.73046875 C158.32239265 70.8843539 168.85299027 79.01333052 178.4921875 88.23828125 C179.32363281 88.99496094 180.15507812 89.75164062 181.01171875 90.53125 C196.11115608 104.74930697 206.58474321 125.20624994 207.6953125 146.05078125 C208.19596064 172.62315653 197.74570545 193.41747816 180.00048828 212.67529297 C176.17037931 216.64427284 171.90899453 219.95584542 167.4921875 223.23828125 C166.52796875 224.00140625 165.56375 224.76453125 164.5703125 225.55078125 C131.92808263 250.78709134 90.16898167 260.59684906 50.14282227 266.29199219 C48.26941917 266.55879791 48.26941917 266.55879791 46.35816956 266.83099365 C45.41239548 266.96539856 44.4666214 267.09980347 43.4921875 267.23828125 C43.30652152 276.89591187 43.16452885 286.55292488 43.07769012 296.21195316 C43.03600302 300.69752768 42.97949847 305.18187807 42.88867188 309.66674805 C42.80150666 313.99811695 42.75386465 318.32831153 42.73316956 322.66049004 C42.71842963 324.31000694 42.68964335 325.95946217 42.64634705 327.60847664 C42.13140334 336.62564835 42.13140334 336.62564835 45.25775146 344.76049805 C47.25299285 346.50188978 49.24453013 347.852147 51.4921875 349.23828125 C53.4453125 351.79296875 53.4453125 351.79296875 54.7421875 354.11328125 C55.18046875 354.87382812 55.61875 355.634375 56.0703125 356.41796875 C58.0245067 360.29414516 59.76040981 364.25866916 61.4921875 368.23828125 C110.59393954 361.21513728 155.86628609 344.2524885 192.4921875 310.23828125 C193.09675781 309.68785156 193.70132812 309.13742187 194.32421875 308.5703125 C211.597533 292.18695824 223.027064 269.58847096 225.60058594 245.95703125 C225.68480679 245.18431381 225.76902763 244.41159637 225.85580063 243.61546326 C226.76743903 234.51686074 226.78175627 225.43633806 226.7578125 216.30078125 C226.75916566 214.44148712 226.76111155 212.58219334 226.76361084 210.72290039 C226.76653156 206.85722429 226.76236421 202.99164165 226.75292969 199.12597656 C226.7415371 194.22492527 226.74811316 189.32409322 226.76007462 184.42304993 C226.76737659 180.59296074 226.7649675 176.76292168 226.75981903 172.93283081 C226.75850545 171.12791924 226.76004758 169.32300278 226.76477814 167.51809692 C226.78331773 158.46192138 226.58206668 149.50993661 225.60839844 140.5 C225.5320026 139.78625717 225.45560677 139.07251434 225.3768959 138.33714294 C223.20755118 120.31497624 214.80864099 103.24817127 203.4921875 89.23828125 C203.06502441 88.7057373 202.63786133 88.17319336 202.19775391 87.62451172 C196.78020099 80.90890311 191.27840971 74.61362221 184.4921875 69.23828125 C183.442348 68.37804373 182.39290337 67.51732419 181.34375 66.65625 C173.77333079 60.50661571 166.00997215 55.02256563 157.4921875 50.23828125 C156.38907227 49.61203857 156.38907227 49.61203857 155.26367188 48.97314453 C116.45170215 27.15516074 70.88041213 16.39297168 26.4921875 15.23828125 C25.65993652 15.21636719 24.82768555 15.19445313 23.97021484 15.171875 C-38.90623171 13.79977578 -108.50911468 28.09575667 -156.5078125 71.23828125 Z M-138.5078125 100.23828125 C-139.19230469 100.84800781 -139.87679687 101.45773438 -140.58203125 102.0859375 C-153.11258612 113.6810089 -161.41819456 130.47556845 -162.76171875 147.4453125 C-163.07830694 156.54466995 -161.57383639 164.68922193 -158.5078125 173.23828125 C-157.8478125 173.89828125 -157.1878125 174.55828125 -156.5078125 175.23828125 C-155.99734375 174.63242188 -155.486875 174.0265625 -154.9609375 173.40234375 C-137.93551347 153.78084443 -115.35365367 140.81067658 -91.5078125 131.17578125 C-90.55261719 130.78124756 -89.59742188 130.38671387 -88.61328125 129.98022461 C-82.64270586 127.65096954 -77.92305267 126.62216412 -71.5078125 127.23828125 C-69.3828125 129.36328125 -69.3828125 129.36328125 -68.5078125 132.23828125 C-68.5078125 135.36328125 -68.5078125 135.36328125 -69.5078125 138.23828125 C-73.03870466 140.81748763 -76.93566006 142.25269778 -80.99169922 143.78662109 C-104.22461995 152.57392218 -125.0661873 164.42812846 -142.5078125 182.23828125 C-143.00780762 182.73908203 -143.50780273 183.23988281 -144.02294922 183.75585938 C-146.18839669 186.09051737 -147.48767082 187.54498359 -147.58203125 190.79296875 C-138.52805836 211.40310341 -107.02484882 226.32401454 -87.5078125 234.23828125 C-65.2493467 242.78467533 -36.83734634 253.176338 -12.5078125 251.23828125 C-10.32834604 248.3857674 -10.32834604 248.3857674 -8.5078125 245.23828125 C-4.75770843 242.42905515 -0.23886873 242.93250395 4.23828125 242.9375 C5.08640884 242.93321487 5.93453644 242.92892975 6.80836487 242.92451477 C8.5995291 242.9187799 10.39071662 242.918265 12.18188477 242.92260742 C14.91658416 242.92576612 17.65020001 242.9023028 20.38476562 242.87695312 C22.12760281 242.87467985 23.87044289 242.87397676 25.61328125 242.875 C26.428004 242.86579025 27.24272675 242.85658051 28.08213806 242.84709167 C32.7074537 242.88462827 35.73946292 243.23868323 39.4921875 246.23828125 C41.3046875 248.92578125 41.3046875 248.92578125 42.4921875 251.23828125 C78.13745969 250.52537581 120.2018376 238.0439073 149.4921875 217.23828125 C150.46285156 216.55121094 151.43351562 215.86414063 152.43359375 215.15625 C162.24560558 208.00087483 171.73312484 200.44817336 178.4921875 190.23828125 C154.57130278 156.16914241 108.87668598 139.28133383 69.4921875 132.23828125 C53.24671953 129.52420843 36.97473174 127.45871145 20.4921875 127.23828125 C19.50984131 127.22434326 18.52749512 127.21040527 17.51538086 127.19604492 C9.66193502 127.13756496 1.88580454 127.47721905 -5.9453125 128.05078125 C-7.14873291 128.13553711 -8.35215332 128.22029297 -9.59204102 128.30761719 C-18.34820168 128.96680118 -27.00880962 129.98475619 -35.66772461 131.44848633 C-43.50655992 132.68835241 -43.50655992 132.68835241 -47.5078125 130.23828125 C-48.91238987 127.42912651 -48.75676407 125.35017591 -48.5078125 122.23828125 C-47.43359375 120.14453125 -47.43359375 120.14453125 -45.5078125 118.23828125 C-42.34765625 117.26171875 -42.34765625 117.26171875 -38.4453125 116.61328125 C-37.73922852 116.49484863 -37.03314453 116.37641602 -36.30566406 116.25439453 C29.17047004 105.65801534 105.95790351 113.24234075 161.4921875 152.23828125 C170.06797054 158.57673778 178.225766 165.41764117 185.4921875 173.23828125 C186.1521875 173.89828125 186.8121875 174.55828125 187.4921875 175.23828125 C188.14182773 173.34374904 188.78673865 171.44759476 189.4296875 169.55078125 C189.78933594 168.49503906 190.14898437 167.43929687 190.51953125 166.3515625 C195.23146214 151.26959897 192.34249831 135.1902023 185.2421875 121.36328125 C173.1393071 100.56065596 154.47303403 86.25350483 133.4921875 75.23828125 C132.58388184 74.75560791 132.58388184 74.75560791 131.65722656 74.26318359 C105.08341509 60.35377837 75.14284245 53.42024905 45.4921875 50.23828125 C44.60112305 50.14256836 43.71005859 50.04685547 42.79199219 49.94824219 C33.8683636 49.09648291 24.948348 48.99504927 15.9921875 48.98828125 C14.7788121 48.98726913 14.7788121 48.98726913 13.54092407 48.98623657 C-40.10698934 49.05673144 -98.62212903 62.1687585 -138.5078125 100.23828125 Z M-14.5078125 367.23828125 C-13.5078125 370.23828125 -13.5078125 370.23828125 -13.5078125 370.23828125 Z M43.4921875 367.23828125 C43.4921875 368.22828125 43.4921875 369.21828125 43.4921875 370.23828125 C44.1521875 369.90828125 44.8121875 369.57828125 45.4921875 369.23828125 C44.8321875 368.57828125 44.1721875 367.91828125 43.4921875 367.23828125 Z M-16.5078125 386.23828125 C-14.69401492 396.03695784 -9.82793477 402.41753536 -1.77734375 408.19921875 C6.05588229 412.70253089 13.59935638 413.64191667 22.4921875 412.23828125 C31.79193527 409.17065612 39.25355598 403.81701164 43.8671875 395.11328125 C45.19362598 392.19965143 46.09255776 389.43531915 46.4921875 386.23828125 C44.16146871 385.81957572 44.16146871 385.81957572 41.4921875 386.23828125 C40.14299218 387.89213358 38.81085022 389.55998325 37.4921875 391.23828125 C30.99866594 394.03775829 24.2554879 393.57424838 17.32495117 393.55395508 C15.06445076 393.5507949 12.80526094 393.57428964 10.54492188 393.59960938 C9.09114747 393.60188288 7.63736958 393.60258562 6.18359375 393.6015625 C4.22208374 393.60603394 4.22208374 393.60603394 2.22094727 393.6105957 C-2.07384058 393.18176368 -4.69338809 392.21099186 -8.5078125 390.23828125 C-9.0440625 389.51640625 -9.5803125 388.79453125 -10.1328125 388.05078125 C-10.5865625 387.45265625 -11.0403125 386.85453125 -11.5078125 386.23828125 C-14.06522183 386.08715061 -14.06522183 386.08715061 -16.5078125 386.23828125 Z " fill="#000000" transform="translate(241.5078125,-0.23828125)"/>
<path d="M0 0 C4.74331631 3.439112 7.36294607 7.61811349 9.66796875 12.9296875 C10.84537976 20.6482708 10.28105926 27.42516967 5.69140625 33.8984375 C0.679994 39.79421661 -4.66334788 42.89779686 -12.3359375 43.578125 C-18.69632017 43.68021782 -24.17293912 42.1149818 -29.19921875 38.17578125 C-34.38603169 33.02767587 -36.83847208 27.21989263 -37.14453125 19.9921875 C-37.05491418 13.24103508 -34.56011951 7.75822173 -30.08984375 2.7265625 C-21.46603918 -5.16900969 -10.03995134 -5.65046546 0 0 Z M-18.76953125 14.6796875 C-21.06265155 17.45542173 -21.06265155 17.45542173 -20.76953125 20.7421875 C-19.7683605 23.6205534 -19.23194363 24.88437879 -16.76953125 26.6171875 C-14.91729455 27.62196787 -14.91729455 27.62196787 -12.76953125 27.6171875 C-9.27062358 26.20096297 -8.02514287 25.10710976 -6.26953125 21.7421875 C-5.52467039 18.62967775 -5.52467039 18.62967775 -6.70703125 15.8046875 C-8.70091692 13.34423669 -8.70091692 13.34423669 -12.14453125 12.4921875 C-15.87778151 12.29561675 -15.87778151 12.29561675 -18.76953125 14.6796875 Z " fill="#000000" transform="translate(192.76953125,289.3828125)"/>
<path d="M0 0 C5.78520306 2.93917293 8.92156872 7.2010214 12.0625 12.75 C14.38019073 20.34687518 13.83009198 27.37403903 10.1875 34.4375 C6.78456896 40.0654244 1.17931484 43.38880288 -5.1171875 45.04296875 C-11.75641801 46.01932618 -17.15002581 44.89925054 -23 41.6875 C-29.00157073 36.88624342 -32.42903608 32.04043002 -33.8125 24.4375 C-34.06604269 17.89609862 -32.78777587 11.73029588 -28.8125 6.4375 C-20.62151579 -1.2736776 -10.79130428 -4.25443976 0 0 Z M-16.8125 18.4375 C-17.88892709 20.32600355 -17.88892709 20.32600355 -17.8125 22.4375 C-16.46255863 25.58736319 -15.37992762 27.09405696 -12.4375 28.875 C-9.14529842 29.58047177 -7.71586429 29.08535541 -4.8125 27.4375 C-2.46727065 24.55237022 -2.46727065 24.55237022 -2.9375 20.9375 C-3.51500244 17.46157075 -3.51500244 17.46157075 -5.5625 15.5 C-10.62258592 13.11051498 -13.4258918 14.08328946 -16.8125 18.4375 Z " fill="#000000" transform="translate(343.8125,287.5625)"/>
<path d="M0 0 C5.31745268 3.17695266 9.31102579 7.87205159 12.0625 13.375 C13.51564254 21.44801409 13.27522238 28.50523652 8.625 35.5 C4.12718628 40.42036407 -0.39806971 44.02232402 -7.171875 44.8359375 C-14.93485382 44.93862241 -21.09082952 44.12651273 -27.15625 38.9921875 C-31.83003153 34.06638834 -34.18490253 28.53813113 -34.50390625 21.76171875 C-34.16794053 14.40101529 -32.01556483 9.245673 -26.88671875 3.96875 C-19.65550503 -2.45899553 -8.92522888 -3.9473615 0 0 Z M-16.25 15.6875 C-17.72905406 18.07042043 -18.24091307 19.68417448 -18.375 22.5 C-17.52754366 25.35701707 -17.52754366 25.35701707 -15.375 27.5 C-12.01907137 28.83660145 -12.01907137 28.83660145 -8.375 28.5 C-5.22841334 26.60350449 -5.22841334 26.60350449 -3.375 23.5 C-3.375 20.26578825 -3.84326572 18.38622381 -5.5 15.625 C-8.92722023 13.56866786 -12.86691263 13.544878 -16.25 15.6875 Z " fill="#000000" transform="translate(409.375,262.5)"/>
<path d="M0 0 C6.1874325 3.73334535 10.18849417 9.04192513 12.1484375 15.984375 C13.29518125 22.77829081 12.5266276 28.53028757 8.8125 34.375 C4.88590954 39.61045395 1.07172778 43.01730485 -5.4375 44.4375 C-12.8682251 45.12921771 -19.35143709 45.12311403 -25.4375 40.4375 C-31.44009901 34.8509227 -34.3922755 29.88941507 -34.8125 21.625 C-34.63960194 15.22777192 -32.91752155 10.15050896 -28.56640625 5.390625 C-20.68022489 -1.82470918 -10.21428984 -4.59445856 0 0 Z M-16.9375 16.5625 C-18.6784198 19.35879953 -18.6784198 19.35879953 -18.4375 22.5625 C-17.62505589 25.44685665 -17.62505589 25.44685665 -15.8125 27.375 C-12.2917329 28.95008002 -10.09515818 28.50154602 -6.4375 27.4375 C-4.19449365 25.36586371 -4.19449365 25.36586371 -3.4375 22.4375 C-4.19922691 18.90585704 -4.87621412 16.99878588 -7.4375 14.4375 C-11.68096941 13.88742063 -13.61788928 13.74083089 -16.9375 16.5625 Z " fill="#000000" transform="translate(125.4375,262.5625)"/>
</svg>
