<svg width="40" height="40" viewBox="0 0 40 40" fill="none" xmlns="http://www.w3.org/2000/svg">
<g clip-path="url(#clip0_951_1451)">
<rect width="39.41" height="39.41" rx="8.41" fill="white"/>
<rect width="39.41" height="39.41" fill="#5CB15A"/>
<path d="M28.5208 22.2285V26.485C28.5208 28.9203 27.5139 29.89 24.2647 29.89H13.6226C10.58 29.89 9.36789 29.0844 9.36789 26.485L9.36789 22.2285C9.36789 21.2224 9.61559 20.2261 10.0969 19.2966C10.5781 18.367 11.2835 17.5224 12.1728 16.811C13.062 16.0996 14.1177 15.5352 15.2796 15.1502C16.4415 14.7652 17.6867 14.567 18.9443 14.567C20.2019 14.567 21.4472 14.7652 22.6091 15.1502C23.771 15.5352 24.8267 16.0996 25.7159 16.811C26.6052 17.5224 27.3106 18.367 27.7918 19.2966C28.2731 20.2261 28.5208 21.2224 28.5208 22.2285Z" stroke="white" stroke-width="1.5" stroke-linecap="round" stroke-linejoin="round"/>
<path d="M24.4166 22.2285C24.4166 21.0674 23.84 19.9538 22.8138 19.1328C21.7875 18.3118 20.3956 17.8505 18.9443 17.8505C17.493 17.8505 16.1011 18.3118 15.0748 19.1328C14.0486 19.9538 13.4721 21.0674 13.4721 22.2285M18.9443 24.4175L20.3124 22.2285M21.6804 14.567V11.2835M16.2082 14.567V11.2835M24.8434 11.2835H13.0452C11.8359 11.2835 11.2312 11.2835 10.699 11.1171C10.5228 11.063 10.3541 10.9944 10.1955 10.9125C9.71672 10.6717 9.38155 10.2908 8.7112 9.53011C8.18859 8.93799 7.92729 8.64138 8.01759 8.39949C8.04666 8.3224 8.09665 8.2514 8.16397 8.19154C8.38286 8 8.85347 8 9.79607 8H28.0953C29.0379 8 29.5085 8 29.726 8.19154C29.7944 8.25283 29.8432 8.32215 29.8724 8.39949C29.9627 8.64138 29.7014 8.93799 29.1788 9.53011C28.5085 10.2908 28.1733 10.6706 27.6945 10.9125C27.5359 10.9944 27.3672 11.063 27.191 11.1171C26.6561 11.2835 26.0528 11.2835 24.8434 11.2835Z" stroke="white" stroke-width="1.5" stroke-linecap="round" stroke-linejoin="round"/>
</g>
<defs>
<clipPath id="clip0_951_1451">
<rect width="39.41" height="39.41" rx="8.41" fill="white"/>
</clipPath>
</defs>
</svg>
